HIERARCHY
ROOT Hips
{
    OFFSET 0.000000 0.000000 0.000000
    CHANNELS 6 Xposition Yposition Zposition Zrotation Xrotation Yrotation
    JOINT Spine
    {
        OFFSET -0.000000 0.081343 0.000000
        CHANNELS 3 Zrotation Xrotation Yrotation
        JOINT Spine1
        {
            OFFSET -0.000000 0.243280 0.000000
            CHANNELS 3 Zrotation Xrotation Yrotation
            JOINT Neck
            {
                OFFSET -0.000000 0.242281 0.022026
                CHANNELS 3 Zrotation Xrotation Yrotation
                JOINT Head
                {
                    OFFSET -0.000000 0.149025 -0.021289
                    CHANNELS 3 Zrotation Xrotation Yrotation
                    End Site
                    {
                        OFFSET -0.000000 0.198396 0.000000
                    }
                }
            }
            JOINT LeftShoulder
            {
                OFFSET 0.039707 0.224479 -0.002125
                CHANNELS 3 Zrotation Xrotation Yrotation
                JOINT LeftArm
                {
                    OFFSET 0.116942 0.000000 0.000000
                    CHANNELS 3 Zrotation Xrotation Yrotation
                    JOINT LeftForeArm
                    {
                        OFFSET 0.282002 0.000000 0.000000
                        CHANNELS 3 Zrotation Xrotation Yrotation
                        JOINT LeftHand
                        {
                            OFFSET 0.358743 0.000000 0.000000
                            CHANNELS 3 Zrotation Xrotation Yrotation
                            End Site
                            {
                                OFFSET 0.148797 0.000000 0.000000
                            }
                        }
                    }
                }
            }
            JOINT RightShoulder
            {
                OFFSET -0.039404 0.224479 -0.002125
                CHANNELS 3 Zrotation Xrotation Yrotation
                JOINT RightArm
                {
                    OFFSET -0.116942 0.000000 0.000000
                    CHANNELS 3 Zrotation Xrotation Yrotation
                    JOINT RightForeArm
                    {
                        OFFSET -0.282002 0.000000 0.000000
                        CHANNELS 3 Zrotation Xrotation Yrotation
                        JOINT RightHand
                        {
                            OFFSET -0.358743 0.000000 0.000000
                            CHANNELS 3 Zrotation Xrotation Yrotation
                            End Site
                            {
                                OFFSET -0.148797 0.000000 0.000000
                            }
                        }
                    }
                }
            }
        }
    }
    JOINT LeftUpLeg
    {
        OFFSET 0.099198 0.000000 0.000000
        CHANNELS 3 Zrotation Xrotation Yrotation
        JOINT LeftLeg
        {
            OFFSET -0.000000 -0.332973 0.000000
            CHANNELS 3 Zrotation Xrotation Yrotation
            JOINT LeftFoot
            {
                OFFSET -0.000000 -0.491254 0.000000
                CHANNELS 3 Zrotation Xrotation Yrotation
                JOINT LeftToeBase
                {
                    OFFSET -0.000000 -0.064479 0.148797
                    CHANNELS 3 Zrotation Xrotation Yrotation
                    End Site
                    {
                        OFFSET -0.000000 0.000000 0.039679
                    }
                }
            }
        }
    }
    JOINT RightUpLeg
    {
        OFFSET -0.099198 0.000000 0.000000
        CHANNELS 3 Zrotation Xrotation Yrotation
        JOINT RightLeg
        {
            OFFSET -0.000000 -0.332973 0.000000
            CHANNELS 3 Zrotation Xrotation Yrotation
            JOINT RightFoot
            {
                OFFSET -0.000000 -0.491254 0.000000
                CHANNELS 3 Zrotation Xrotation Yrotation
                JOINT RightToeBase
                {
                    OFFSET -0.000000 -0.064479 0.148797
                    CHANNELS 3 Zrotation Xrotation Yrotation
                    End Site
                    {
                        OFFSET -0.000000 0.000000 0.039679
                    }
                }
            }
        }
    }
}
MOTION
Frames:    10
Frame Time:    0.010000
-0.056153    0.864123    -0.078921    -3.291499    -2.057605    -52.163406    -0.165740    -0.784107    -3.528245    -6.194534    12.762508    -0.481666    9.288919    12.705813    15.799463    -13.624496    -13.060527    12.722167    -4.426983    20.559017    -8.807924    -13.739751    19.117846    -46.353275    44.092205    13.123618    -62.047192    47.204399    29.874334    -23.391582    6.686734    25.721966    8.852057    38.642841    35.798061    27.039124    -10.013671    -1.924508    42.489059    14.262310    3.366502    11.066094    17.348461    -10.412224    12.408305    -8.689203    27.765593    5.504466    -1.760650    -13.687346    19.875536    0.000000    0.000000    0.000000    -11.986277    -9.219826    -6.910449    2.409828    29.717897    -1.068631    7.395248    -14.714030    -5.683900    0.000000    0.000000    0.000000    
-0.057258    0.863732    -0.082001    -3.405393    -2.122487    -52.417294    0.139498    -0.571607    -3.553858    -6.313200    12.812088    -0.474778    9.353509    12.795410    15.703533    -13.902185    -13.229027    12.537608    -4.551587    20.724831    -8.810663    -14.024693    18.782684    -46.134430    42.553288    12.774357    -62.217594    45.179493    30.215418    -20.413778    6.380241    25.677622    9.232159    38.484951    36.143700    27.195890    -10.046450    -2.272912    42.317661    12.629184    2.704430    9.727041    17.490141    -10.228627    12.484920    -8.545948    27.682404    1.921952    -1.050479    -13.752315    23.620922    0.000000    0.000000    0.000000    -11.994990    -9.444286    -7.171058    2.570573    30.141636    -0.382873    6.889237    -14.858283    -5.893430    0.000000    0.000000    0.000000    
-0.059451    0.863825    -0.084767    -3.708680    -2.379278    -52.579586    0.290655    -0.240741    -3.636915    -6.333395    13.000034    -0.489753    9.224953    12.861576    15.608274    -13.852459    -13.412877    12.438688    -4.713352    20.809961    -8.845175    -14.190540    18.662786    -45.981915    45.294079    13.919239    -61.860367    44.339615    32.023670    -22.930798    6.101636    25.675819    9.651085    38.403034    36.381493    27.167618    -10.364989    -2.575881    42.149521    12.543423    2.508029    9.791281    17.760839    -9.735321    12.421350    -8.681005    27.563797    2.136536    -1.324563    -13.480740    23.481882    0.000000    0.000000    0.000000    -11.849299    -9.040932    -7.086976    2.698314    30.097094    -0.644608    6.622722    -14.984849    -5.478562    0.000000    0.000000    0.000000    
-0.061239    0.863819    -0.087767    -3.868473    -2.567504    -52.701908    0.465455    -0.051008    -3.841838    -6.459160    13.173386    -0.533699    9.004798    13.011057    15.588569    -13.735304    -13.738123    12.429677    -4.917369    20.839745    -8.673098    -13.938261    18.840487    -45.972446    45.249741    13.809121    -61.360397    44.245796    31.638988    -22.995214    5.729725    25.546026    10.188348    38.441807    36.686886    27.127562    -10.653397    -2.877140    41.958633    12.268186    2.280900    9.850373    18.023161    -9.458817    12.374517    -8.852264    27.486677    2.414377    -1.616499    -13.181207    23.283806    0.000000    0.000000    0.000000    -11.475368    -8.950034    -8.918742    1.208928    30.272360    0.764066    6.818792    -15.068868    -4.456076    0.000000    0.000000    0.000000    
-0.061371    0.863075    -0.093147    -3.755586    -2.062860    -52.133881    0.874752    -0.022237    -4.397592    -6.336429    12.866703    -0.750215    9.024176    12.886023    15.592169    -13.682084    -13.501890    12.463394    -5.033402    20.817272    -8.784767    -13.900473    18.816343    -45.889492    44.489754    13.717407    -61.018795    45.320492    30.488594    -23.518196    5.551853    25.430208    10.422473    38.394051    36.948532    27.055035    -10.920467    -3.077680    41.821247    12.165213    2.170262    9.949614    19.000797    -10.805924    12.048533    -9.392920    28.295017    6.518611    -2.686203    -12.590401    19.271481    0.000000    0.000000    0.000000    -10.950594    -9.559157    -10.123178    0.854084    30.592474    1.584904    6.415363    -15.220078    -4.726032    0.000000    0.000000    0.000000    
-0.063030    0.862995    -0.096607    -3.806070    -2.064193    -52.156506    1.019772    0.082758    -4.507864    -6.345788    12.846628    -0.786861    8.831814    12.712233    15.441195    -13.148911    -13.107938    12.477062    -5.097350    20.759396    -8.901713    -14.045732    18.650749    -45.766506    43.201916    13.720065    -60.778267    46.632641    29.140659    -23.874611    5.445449    25.244137    10.540746    38.330154    37.266808    26.969938    -11.070090    -3.201572    41.706352    11.938543    2.086658    10.095133    19.472885    -10.804084    12.014952    -9.750272    28.257839    6.867852    -2.840527    -12.221322    19.060892    0.000000    0.000000    0.000000    -10.597430    -9.627025    -10.739992    0.348456    30.675758    2.087059    6.229681    -15.341397    -4.438172    0.000000    0.000000    0.000000    
-0.065437    0.863351    -0.100161    -4.060108    -1.988108    -52.019283    1.211076    0.274962    -4.612513    -6.212777    12.800585    -0.838588    8.842487    13.265860    15.204903    -13.205570    -13.817245    12.181402    -5.082153    20.732277    -9.231802    -14.025398    18.780304    -45.675964    42.998062    13.862190    -60.523766    46.403305    29.041321    -23.940489    5.467233    25.011103    10.429689    38.306911    37.567596    26.797838    -11.072093    -3.225524    41.613007    11.602995    2.031978    10.182023    20.212612    -10.665507    11.914332    -10.202107    28.128407    7.208183    -2.999417    -11.747096    18.747345    0.000000    0.000000    0.000000    -9.915880    -9.369736    -11.122091    -0.097184    30.491293    2.332463    6.019237    -15.352390    -4.351361    0.000000    0.000000    0.000000    
-0.065261    0.862904    -0.103355    -3.525277    -2.039347    -51.990238    1.104588    0.145966    -4.741759    -6.400471    12.556494    -0.874896    8.953018    12.751774    15.160935    -12.979118    -12.729263    12.267282    -5.070057    20.623508    -9.299060    -13.804916    19.175508    -45.739861    44.362923    14.382787    -60.391121    43.214325    31.345699    -22.903214    5.434267    24.953192    10.500200    38.255367    37.545891    26.670633    -11.211743    -3.162580    41.484947    13.058146    2.455848    11.833071    20.129145    -11.295771    12.421809    -10.177343    28.314978    7.329626    -3.116890    -11.262409    18.351206    0.000000    0.000000    0.000000    -10.089848    -10.170148    -11.695115    -0.588463    30.954567    2.798118    5.920232    -15.671617    -4.149601    0.000000    0.000000    0.000000    
-0.066456    0.863078    -0.106591    -3.404970    -2.040409    -51.825745    1.153765    0.169537    -4.966524    -6.482475    12.461794    -0.946199    8.875327    12.753770    15.023707    -12.632009    -12.673663    12.218598    -4.992137    20.526606    -9.342792    -14.024893    19.045912    -45.788521    42.543411    14.119337    -60.189735    45.348179    29.142918    -23.732309    5.480685    25.006060    10.522976    38.037483    37.456532    26.698969    -11.125939    -3.045996    41.435829    12.887541    2.527628    11.932396    20.465237    -11.451457    12.313037    -10.602207    28.139900    8.559287    -3.288093    -10.659743    17.241665    0.000000    0.000000    0.000000    -9.858466    -10.362251    -11.704837    -0.692853    31.062746    2.982559    5.578843    -15.816951    -4.553164    0.000000    0.000000    0.000000    
-0.067673    0.863199    -0.109765    -3.253317    -1.980975    -51.661713    1.191346    0.118967    -5.187501    -6.511674    12.365587    -1.022311    8.945437    13.023555    14.863849    -12.745216    -12.985786    12.009681    -4.935782    20.547737    -9.394732    -13.993608    19.082193    -45.943554    42.358452    14.232862    -60.075748    44.501320    29.334923    -23.534590    5.480792    24.920763    10.548863    37.996616    37.421219    26.594620    -10.945055    -2.942556    41.390533    12.617503    2.529750    11.942961    20.845182    -11.626378    12.032476    -11.173496    27.894367    9.243122    -3.166838    -10.163604    16.902790    0.000000    0.000000    0.000000    -9.592760    -10.631236    -11.457188    -0.673491    31.190056    2.833314    5.304796    -15.932305    -4.888874    0.000000    0.000000    0.000000    
